<svg width="21" height="21" viewBox="0 0 21 21" fill="none" xmlns="http://www.w3.org/2000/svg">
<g clip-path="url(#clip0_20_2477)">
<path d="M14.1852 1.6687H5.84104C3.53686 1.6687 1.66895 3.53661 1.66895 5.8408V14.185C1.66895 16.4892 3.53686 18.3571 5.84104 18.3571H14.1852C16.4894 18.3571 18.3573 16.4892 18.3573 14.185V5.8408C18.3573 3.53661 16.4894 1.6687 14.1852 1.6687Z" stroke="white" stroke-width="1.66884" stroke-linecap="round" stroke-linejoin="round"/>
<path d="M13.3507 9.48726C13.4537 10.1817 13.335 10.8909 13.0117 11.5141C12.6884 12.1372 12.1768 12.6425 11.5497 12.9582C10.9226 13.2738 10.212 13.3837 9.51885 13.2721C8.82573 13.1606 8.18543 12.8334 7.68901 12.3369C7.1926 11.8405 6.86535 11.2002 6.75382 10.5071C6.64229 9.81398 6.75215 9.10334 7.06778 8.47626C7.38341 7.84917 7.88873 7.33758 8.51187 7.01424C9.13502 6.6909 9.84425 6.57229 10.5387 6.67527C11.247 6.78031 11.9028 7.11039 12.4092 7.61675C12.9156 8.12311 13.2456 8.7789 13.3507 9.48726Z" stroke="white" stroke-width="1.66884" stroke-linecap="round" stroke-linejoin="round"/>
<path d="M14.6023 5.42358H14.6106" stroke="white" stroke-width="1.66884" stroke-linecap="round" stroke-linejoin="round"/>
</g>
<defs>
<clipPath id="clip0_20_2477">
<rect width="20.0261" height="20.0261" fill="white"/>
</clipPath>
</defs>
</svg>
