<svg width="424" height="164" viewBox="0 0 424 164" fill="none" xmlns="http://www.w3.org/2000/svg">
<path d="M6.10749 44.9922C6.10749 44.9922 57.573 39.1834 63.3922 35.8567C69.2114 32.53 75.0097 27.5555 83.7281 25.8973C92.4465 24.2392 150.972 14.2798 150.972 14.2798C150.972 14.2798 158.439 12.2045 169.233 20.0885C180.026 27.9726 203.689 53.2934 210.322 52.4696C216.965 51.6353 220.281 42.5102 218.206 38.3596C216.131 34.209 175.792 4.20567 168.816 2.24508C158.877 -0.5498 145.987 -0.247369 130.209 2.24508C114.441 4.73754 9.00666 26.5856 9.00666 26.5856C9.00666 26.5856 -4.68619 32.9679 6.09706 45.0026L6.10749 44.9922Z" fill="#1A1A1A" stroke="#1A1A1A" stroke-width="0.521434" stroke-miterlimit="10"/>
<g style="mix-blend-mode:multiply" opacity="0.3">
<path d="M214.066 40.4244C214.066 40.4244 213.742 46.8381 209.915 46.2332C204.732 45.4198 172.56 10.953 161.766 12.6112C161.766 12.6112 170.662 15.4373 181.017 24.7501C187.806 30.8613 216.913 64.2227 214.066 40.4244Z" fill="#1A1A1A"/>
</g>
<path d="M283.468 70.5529L377.89 39.4963C377.89 39.4963 400.968 33.625 404.326 35.304C407.684 36.983 422.796 67.1949 422.796 70.5529C422.796 73.9109 420.272 85.1635 416.924 86.0812C414.494 86.7486 411.366 86.1959 409.791 81.6907C408.321 77.4984 402.658 48.6005 396.786 48.8717C390.915 49.1428 343.913 65.5054 343.913 65.5054C343.913 65.5054 330.064 72.2215 324.192 77.2585C318.321 82.2956 290.623 89.0116 290.623 89.0116C290.623 89.0116 280.548 81.0337 283.489 70.5425L283.468 70.5529Z" fill="#1A1A1A" stroke="#1A1A1A" stroke-width="0.521434" stroke-miterlimit="10"/>
<g style="mix-blend-mode:multiply" opacity="0.3">
<path d="M290.299 71.0222C290.299 71.0222 396.953 34.3237 402.773 37.6609C402.773 37.6609 383.792 40.2576 359.222 50.0501C334.652 59.8427 290.299 73.0245 290.299 73.0245V71.0222Z" fill="#1A1A1A"/>
</g>
<g style="mix-blend-mode:multiply" opacity="0.3">
<path d="M398.778 48.0374C398.778 48.0374 402.178 48.0373 403.972 51.6352C405.766 55.2331 414.161 77.4045 414.161 77.4045C414.161 77.4045 414.964 82.598 419.552 74.6096C419.552 74.6096 416.351 84.5794 413.962 81.6907C411.574 78.8019 403.774 54.232 403.774 54.232C403.774 54.232 400.781 47.2031 398.778 48.0374Z" fill="#1A1A1A"/>
</g>
<path d="M294.439 71.7626C294.189 68.2064 284.459 66.3188 281.185 65.0882C277.91 63.8577 264.812 67.1323 264.812 67.1323C252.12 63.8576 207.923 57.7152 182.55 57.7152C157.177 57.7152 148.584 69.583 145.716 69.1763C142.848 68.7696 127.706 68.3628 121.157 67.1323C114.607 65.9017 115.838 52.3965 80.2241 39.5171C44.6206 26.6377 9.0067 26.5647 9.0067 26.5647C-4.91558 31.4245 1.95692 45.8473 1.95692 45.8473L4.0948 52.4695C8.59998 54.5866 7.3694 63.4405 9.0067 76.5389C10.644 89.6373 16.7865 106.417 23.7424 116.648C30.6983 126.878 56.8952 138.339 69.9936 138.746C83.092 139.153 94.5531 136.702 103.146 122.78C111.74 108.868 120.75 84.3083 120.75 84.3083L131.387 85.9456C131.387 85.9456 134.422 86.2689 136.967 89.168C139.511 92.0672 141.586 97.5423 144.892 107.22C152.776 130.267 171.089 148.153 171.089 148.153C171.089 148.153 176.929 155.901 205.963 161.355C230.032 165.881 250.493 158.79 250.493 158.79C268.973 151.313 273.05 111.903 273.05 111.903C273.05 111.903 274.959 98.0324 281.195 94.5388C288.881 90.2213 289.82 89.9085 294.45 88.9908C298.215 88.2503 294.7 75.2979 294.45 71.7417L294.439 71.7626ZM91.2785 124.438C81.4547 129.756 57.719 131.8 42.9833 120.35C28.2476 108.889 21.2917 88.8343 19.2477 65.0987C17.2036 41.363 26.652 38.7871 26.652 38.7871C26.652 38.7871 42.1699 38.0884 62.2242 42.9899C82.2785 47.9018 104.377 61.8136 104.794 70.824C105.201 79.824 101.113 119.119 91.2889 124.438H91.2785ZM252.12 149.811C242.703 154.316 229.73 154.723 218.821 153.899C207.913 153.085 179.672 152.262 169.441 121.153C169.441 121.153 166.574 106.417 164.123 103.142C161.672 99.8678 154.299 88.0417 154.299 83.9224C154.299 75.3396 161.755 70.3964 161.755 70.3964C161.755 70.3964 170.265 65.0778 181.309 65.0778C192.364 65.0778 248.835 67.9457 256.615 78.5829C264.394 89.2202 263.977 101.505 265.208 111.329C266.438 121.153 261.527 145.295 252.109 149.8L252.12 149.811Z" fill="#1A1A1A" stroke="#1D1D1B" stroke-width="0.521434" stroke-miterlimit="10"/>
<path opacity="0.15" d="M13.9185 53.0536C13.0008 59.3629 14.3357 92.0672 25.8489 110.735C37.3622 129.402 64.4767 133 68.9923 132.958C73.508 132.916 88.2958 134.022 94.5113 123.291C99.6943 114.332 108.246 77.9468 104.022 67.9666C97.4939 52.5113 61.8904 42.9169 61.8904 42.9169C61.8904 42.9169 33.8894 37.2229 26.6206 38.2657C26.6206 38.2657 16.2233 37.2646 13.929 53.0432L13.9185 53.0536Z" fill="#F5F5F5"/>
<path opacity="0.15" d="M150.534 83.9954C150.534 83.9954 149.397 74.0361 170.943 66.59C183.207 62.356 233.995 69.9585 233.995 69.9585C233.995 69.9585 253.903 74.1925 256.635 78.5934C259.368 82.9943 266.501 96.5724 265.281 118.191C264.092 139.267 257.657 146.14 252.13 149.8C252.13 149.8 244.726 154.942 229.875 155.985C202.083 157.945 191.279 154.796 181.705 147.923C150.545 125.543 150.545 83.9954 150.545 83.9954H150.534Z" fill="#F5F5F5"/>
<path opacity="0.4" d="M49.0423 107.418C63.4412 107.418 75.1139 100.415 75.1139 91.7752C75.1139 83.1358 63.4412 76.1322 49.0423 76.1322C34.6433 76.1322 22.9706 83.1358 22.9706 91.7752C22.9706 100.415 34.6433 107.418 49.0423 107.418Z" fill="white"/>
<path opacity="0.4" d="M215.901 117.847C230.3 117.847 241.973 110.843 241.973 102.204C241.973 93.5645 230.3 86.5609 215.901 86.5609C201.502 86.5609 189.829 93.5645 189.829 102.204C189.829 110.843 201.502 117.847 215.901 117.847Z" fill="white"/>
</svg>
